<?xml version="1.0" standalone="no"?>
<!DOCTYPE svg PUBLIC "-//W3C//DTD SVG 20010904//EN"
 "http://www.w3.org/TR/2001/REC-SVG-20010904/DTD/svg10.dtd">
<svg version="1.0" xmlns="http://www.w3.org/2000/svg"
 width="150.000000pt" height="150.000000pt" viewBox="0 0 512.000000 512.000000"
 preserveAspectRatio="xMidYMid meet">
<metadata>
Created by potrace 1.16, written by Peter Selinger 2001-2019
</metadata>
<g transform="translate(0.000000,512.000000) scale(0.100000,-0.100000)"
fill="#000000" stroke="none">
<path d="M3144 4461 c4 -6 11 -11 16 -11 21 0 241 -101 313 -143 350 -208 615
-589 666 -961 33 -234 -6 -487 -109 -719 -27 -61 -48 -113 -45 -115 8 -8 83
154 113 243 48 145 66 261 66 425 0 159 -10 227 -56 370 -65 203 -177 381
-347 550 -154 154 -306 253 -511 332 -92 37 -114 42 -106 29z"/>
<path d="M2429 4315 c-249 -39 -461 -122 -674 -263 -127 -84 -308 -263 -392
-387 -78 -115 -174 -305 -155 -305 4 0 22 33 40 74 44 97 138 242 222 341 220
260 566 453 926 516 126 22 367 30 477 15 34 -4 57 -4 57 2 0 24 -356 29 -501
7z"/>
<path d="M3000 4251 c0 -4 18 -11 40 -15 140 -22 421 -144 541 -235 153 -116
282 -257 358 -393 18 -32 37 -58 42 -58 6 0 -2 21 -17 48 -53 91 -118 178
-198 260 -200 206 -422 325 -738 396 -16 4 -28 2 -28 -3z"/>
<path d="M2365 4204 c-38 -7 -101 -30 -138 -49 -38 -20 -97 -45 -131 -55 -35
-11 -78 -31 -97 -44 -19 -14 -56 -36 -82 -50 -26 -14 -63 -37 -82 -52 -50 -38
-191 -216 -225 -284 -16 -32 -57 -89 -89 -126 -74 -83 -119 -167 -167 -310
-20 -60 -54 -142 -75 -184 -49 -93 -64 -171 -49 -244 9 -46 8 -58 -11 -101
-31 -69 -23 -171 18 -257 17 -35 33 -80 36 -102 12 -79 88 -183 169 -228 31
-18 39 -29 48 -70 5 -27 15 -59 21 -70 23 -42 82 -97 117 -109 20 -7 56 -31
78 -55 23 -23 66 -55 95 -71 49 -25 64 -28 154 -28 91 0 105 3 157 29 31 16
100 66 152 112 52 46 98 84 101 84 8 0 -49 -103 -117 -213 -26 -43 -48 -80
-48 -83 0 -2 12 -4 28 -4 24 0 32 9 76 98 53 108 115 203 136 210 9 3 11 -1 6
-14 -5 -11 -22 -72 -38 -138 -24 -92 -28 -125 -21 -150 10 -30 10 -30 22 29
25 116 84 285 96 273 3 -2 -11 -49 -29 -104 -35 -102 -58 -204 -47 -204 4 0
14 30 23 68 21 84 80 250 85 236 2 -6 -7 -44 -20 -85 -30 -91 -53 -206 -44
-215 4 -4 17 1 28 12 16 14 23 15 26 7 3 -7 15 -13 27 -13 19 0 25 12 49 98
29 104 90 242 116 266 9 8 -3 -25 -26 -73 -41 -85 -101 -286 -89 -298 3 -3 7
0 9 8 44 158 89 270 144 361 55 92 58 67 4 -39 -46 -92 -111 -267 -111 -299 0
-39 21 -4 48 84 34 107 135 322 152 322 6 0 -7 -35 -29 -77 -75 -151 -142
-362 -111 -351 6 2 29 53 49 114 21 61 65 161 97 223 l60 112 78 34 c43 19
110 58 150 88 53 41 83 56 117 61 67 10 162 58 220 113 28 26 72 83 96 125 49
83 38 77 151 94 105 16 204 95 256 204 29 61 31 72 31 180 0 97 -3 122 -21
160 -13 26 -24 73 -27 113 -3 49 -14 86 -36 131 -17 35 -31 72 -31 83 0 30
-64 152 -114 218 -77 101 -176 193 -240 225 -32 17 -65 30 -71 30 -7 0 -42 20
-79 45 -62 41 -201 95 -246 95 -10 0 -32 11 -48 25 -84 70 -219 106 -331 86
-46 -8 -76 -8 -101 -1 -49 14 -221 11 -305 -6z m311 -39 c25 -10 41 -12 54 -5
37 20 133 23 196 7 59 -15 134 -52 134 -66 0 -4 -21 -11 -48 -17 -38 -8 -56
-6 -92 8 -28 10 -74 17 -120 17 -74 0 -100 -6 -227 -57 l-51 -21 -11 29 c-5
17 -9 30 -8 30 1 0 27 9 57 20 l55 20 -50 -6 c-27 -3 -88 -7 -135 -9 -47 -1
-113 -10 -147 -20 -34 -9 -67 -15 -75 -13 -24 8 66 57 142 77 95 25 273 28
326 6z m-225 -95 c31 -17 22 -47 -27 -100 -34 -36 -56 -51 -83 -56 -20 -3 -62
-13 -94 -21 -50 -14 -57 -18 -51 -35 4 -14 -4 -30 -27 -54 -48 -50 -22 -41 31
10 47 46 102 65 188 67 20 0 46 4 57 9 19 8 19 8 -3 17 l-23 9 29 27 c16 15
51 36 78 46 27 11 85 34 129 51 101 41 198 46 242 14 48 -36 42 -50 -28 -63
-73 -12 -137 -42 -180 -82 -21 -19 -54 -35 -96 -46 -105 -26 -184 -94 -248
-214 l-31 -58 -42 49 c-50 59 -49 65 31 148 57 57 56 64 -2 28 -44 -28 -79
-69 -87 -103 -6 -21 -12 -23 -63 -23 -31 -1 -74 -7 -96 -15 -21 -8 -41 -12
-43 -10 -10 10 11 77 32 102 13 15 36 54 51 86 32 65 76 103 150 130 49 18 49
18 11 13 -22 -3 -65 -18 -95 -33 -46 -23 -62 -39 -90 -85 -21 -37 -40 -58 -52
-58 -32 0 -163 -52 -209 -83 -25 -16 -67 -51 -95 -77 -46 -44 -95 -72 -95 -54
0 11 49 94 87 147 25 34 42 47 59 47 19 0 24 5 24 25 0 33 67 106 120 130 37
17 42 17 57 3 14 -15 12 -18 -23 -36 -40 -21 -91 -68 -83 -77 3 -2 16 3 29 12
13 9 85 48 159 86 75 39 154 79 175 90 74 39 188 57 227 37z m-293 -17 c-3
-14 -138 -102 -159 -103 -18 -1 -16 43 3 62 47 47 163 78 156 41z m1061 -10
c74 -20 166 -68 185 -95 17 -24 22 -68 7 -68 -4 0 -46 18 -92 39 -109 51 -192
68 -255 52 -43 -11 -48 -10 -70 10 -41 39 -27 59 53 78 44 11 95 6 172 -16z
m-265 -89 c34 -13 7 -73 -66 -147 -24 -24 -57 -60 -73 -82 l-31 -38 -92 18
c-80 15 -97 16 -120 4 l-27 -13 30 -3 c17 -2 69 -11 116 -20 47 -9 97 -13 111
-10 15 4 37 24 53 49 62 96 86 106 149 63 49 -33 46 -12 -4 24 l-40 29 33 43
c45 60 90 76 171 62 73 -12 205 -71 240 -106 16 -16 28 -21 34 -15 6 6 19 7
30 3 36 -11 118 -110 142 -172 13 -32 32 -70 42 -85 10 -14 18 -39 18 -55 0
-21 12 -38 50 -71 95 -82 117 -163 77 -282 -33 -99 -26 -105 27 -25 13 19 13
19 26 -5 7 -13 15 -52 18 -87 2 -34 8 -60 12 -58 16 10 17 72 3 120 -8 28 -18
86 -23 130 -9 102 -42 169 -110 226 -54 45 -54 47 -41 68 8 13 15 12 49 -3
111 -50 198 -210 161 -297 -11 -29 -11 -33 9 -50 74 -59 69 -257 -9 -381 -51
-80 -173 -146 -255 -136 -26 3 -29 7 -32 46 l-3 42 39 0 c67 0 143 29 184 70
21 21 38 45 38 54 0 21 -16 12 -47 -25 -35 -41 -83 -59 -156 -59 l-65 0 -34
58 c-18 31 -34 60 -36 63 -2 4 14 10 35 14 21 3 58 15 82 26 43 19 44 19 78
-2 27 -17 37 -19 46 -9 9 10 9 14 0 17 -7 3 -23 13 -35 22 -20 17 -21 20 -7
42 29 44 10 52 -33 13 -53 -48 -112 -74 -170 -74 -56 0 -77 18 -80 66 -1 19
-2 41 -2 50 -1 10 25 32 64 56 52 32 68 38 82 29 42 -26 53 3 12 33 -25 18
-26 18 -47 -2 -12 -11 -50 -34 -83 -50 l-62 -31 -4 -93 c-3 -75 -9 -103 -31
-144 -25 -49 -127 -154 -150 -154 -6 0 -21 12 -33 27 l-21 26 43 41 c80 78 87
202 19 368 -6 14 9 25 82 59 141 66 229 99 261 99 39 0 87 -40 104 -85 13 -39
28 -46 28 -15 0 32 -25 83 -53 108 -43 40 -106 40 -207 -2 -12 -5 -15 2 -12
36 2 24 -3 66 -11 94 l-14 52 47 6 c26 3 55 13 66 22 17 14 13 14 -55 8 l-73
-6 -49 48 c-60 59 -68 37 -13 -38 45 -61 63 -109 64 -169 0 -65 -23 -90 -121
-129 l-80 -33 -54 53 -53 52 53 54 c29 29 56 62 60 73 l6 21 26 -20 c42 -33
58 -23 20 13 -18 17 -48 61 -65 97 -36 75 -34 105 8 150 48 51 114 39 208 -37
59 -48 66 -33 11 23 -76 80 -154 102 -216 64 l-32 -19 -30 42 c-28 41 -71 86
-71 74 0 -3 13 -34 30 -69 42 -88 39 -158 -7 -144 -14 4 -36 -7 -76 -38 -32
-25 -72 -49 -90 -54 -18 -6 -107 -12 -198 -15 -195 -6 -240 -19 -280 -83 -21
-34 -24 -52 -25 -139 l-1 -100 -29 -3 c-51 -6 -147 -33 -186 -53 -21 -11 -38
-15 -38 -10 0 5 27 74 61 153 33 78 77 181 97 228 60 144 120 222 205 267 34
18 119 23 177 9 l35 -8 -32 22 c-39 26 -40 30 -9 59 51 48 180 84 230 65z
m573 -59 c29 -13 76 -46 104 -72 63 -58 161 -185 196 -253 27 -53 25 -74 -4
-48 -29 25 -80 48 -107 48 -22 0 -31 11 -62 73 -20 39 -50 91 -66 114 -33 45
-107 103 -132 103 -19 0 -31 23 -22 45 8 21 33 19 93 -10z m-1527 -119 c0 -2
-7 -20 -15 -39 -8 -20 -15 -50 -15 -68 0 -23 -12 -44 -45 -81 -25 -28 -45 -59
-45 -70 0 -17 7 -13 40 20 145 150 350 144 350 -11 0 -34 -43 -154 -100 -280
l-21 -48 -40 41 -39 41 30 68 c37 85 37 104 4 130 -61 48 -142 13 -182 -78
-23 -52 -30 -59 -72 -74 -56 -20 -86 -22 -96 -5 -23 37 14 189 67 275 30 48
18 51 -23 5 l-35 -39 -27 22 -28 22 43 41 c58 57 249 155 249 128z m1136 -181
c30 -20 57 -81 48 -108 -11 -36 -40 -72 -82 -101 l-39 -27 -79 27 c-59 21 -99
28 -159 28 -98 1 -137 -16 -249 -109 -43 -36 -80 -65 -82 -65 -2 0 -4 40 -4
89 0 81 2 92 26 120 34 40 71 49 239 56 210 9 217 10 282 60 65 49 70 51 99
30z m-1415 -44 l24 -19 -20 -53 c-24 -69 -26 -146 -2 -182 21 -33 59 -35 130
-10 44 16 48 16 64 1 15 -16 11 -22 -58 -88 -76 -73 -62 -77 25 -8 27 21 60
41 73 44 60 16 144 -32 159 -90 5 -21 -2 -36 -35 -79 -47 -62 -66 -104 -76
-167 l-7 -46 -83 -37 c-94 -42 -141 -46 -177 -17 -43 33 -51 70 -46 191 7 130
-1 171 -38 210 -50 52 -110 33 -139 -46 -14 -36 -16 -62 -11 -134 l7 -89 -35
-47 c-30 -38 -36 -55 -36 -95 0 -33 6 -55 20 -71 l19 -24 -5 60 c-6 59 -5 61
36 115 38 51 41 59 36 100 -18 132 -17 155 1 190 22 43 60 51 89 19 17 -19 19
-37 19 -184 l0 -163 31 -44 31 -44 -31 -62 c-17 -34 -34 -62 -38 -62 -4 0 -11
12 -14 28 -4 15 -16 43 -27 64 -19 35 -19 44 -2 108 l7 25 -26 -28 c-31 -34
-33 -60 -6 -118 11 -24 20 -50 20 -56 0 -14 -70 -53 -95 -53 -33 0 -75 32
-102 78 -27 45 -28 53 -29 192 -2 161 8 200 50 200 21 0 24 6 30 62 9 91 40
147 98 178 39 20 48 30 48 51 0 15 7 46 15 69 28 80 14 75 -28 -10 -48 -98
-74 -115 -70 -48 l3 43 -15 -30 c-8 -16 -14 -38 -15 -48 0 -11 -9 -31 -20 -47
-19 -27 -50 -126 -50 -161 0 -17 -19 -29 -46 -29 -22 0 -17 40 17 137 45 127
84 199 140 259 78 82 142 104 190 65z m353 -87 c24 -9 20 -36 -16 -109 -30
-61 -35 -66 -63 -63 -63 6 -66 100 -4 152 31 26 53 31 83 20z m912 -129 c94
-35 178 -103 219 -178 75 -135 69 -270 -15 -341 -34 -28 -51 -25 -97 17 -20
18 -23 30 -23 106 0 68 -4 93 -20 118 -35 58 -62 68 -177 67 l-103 -2 0 32 c0
17 4 36 8 42 12 19 49 34 81 34 17 0 31 5 31 10 0 6 -20 10 -45 10 -64 0 -105
-38 -112 -103 -5 -46 -8 -49 -56 -73 -58 -30 -67 -24 -67 46 0 65 -22 36 -28
-37 -3 -34 -12 -69 -24 -85 -29 -41 -47 -101 -54 -183 -7 -75 -7 -75 -53 -110
-78 -60 -149 -182 -166 -288 -17 -105 -124 -17 -125 104 0 54 13 71 46 59 20
-8 25 -4 43 34 25 50 26 86 6 126 -21 40 -57 48 -118 26 -56 -20 -59 -18 -78
48 -12 45 -4 116 18 161 22 44 92 114 137 137 37 19 38 19 31 1 -15 -35 -35
-118 -35 -143 1 -14 6 -37 13 -52 17 -40 131 -172 135 -159 4 12 -18 47 -78
125 -26 34 -30 47 -30 105 0 67 22 134 52 158 8 7 41 15 73 19 55 7 58 6 50
-12 -40 -94 -47 -129 -36 -193 5 -36 16 -71 24 -78 12 -12 13 1 10 89 -4 93
-2 107 19 143 27 46 243 227 291 243 52 18 173 7 253 -23z m-11 -259 c18 -8
39 -24 45 -37 12 -22 10 -132 -3 -145 -3 -3 -19 3 -35 15 -17 12 -35 21 -40
21 -6 0 -12 26 -15 58 -2 31 -8 67 -12 80 -9 27 9 29 60 8z m-97 -41 c10 -31
11 -49 2 -77 -12 -43 -39 -63 -135 -103 -38 -16 -98 -49 -132 -72 l-63 -43 0
53 c0 82 24 150 67 187 54 48 171 101 213 98 31 -3 36 -7 48 -43z m-1531 -46
c-16 -48 -18 -62 -8 -69 10 -6 11 -19 2 -60 -23 -106 24 -239 99 -284 27 -15
30 -20 18 -31 -7 -7 -23 -16 -36 -20 -34 -10 -89 49 -98 105 -6 34 -9 39 -16
25 -25 -44 23 -147 77 -165 37 -12 52 -7 142 50 43 27 54 30 132 29 48 0 122
-6 166 -12 l80 -12 7 -55 c3 -30 4 -58 2 -62 -3 -5 -41 -8 -85 -8 -76 0 -80 1
-77 21 2 18 -6 25 -52 41 -73 24 -90 17 -20 -9 40 -15 55 -26 55 -39 0 -17 -9
-19 -113 -19 -109 0 -112 -1 -91 -17 11 -10 27 -18 35 -18 23 0 24 -17 3 -44
-11 -14 -17 -26 -13 -26 13 0 44 32 44 45 0 10 42 15 153 20 84 4 162 6 172 4
12 -3 30 -26 48 -63 15 -32 26 -60 24 -62 -6 -7 -298 -44 -344 -44 -61 0 -125
18 -156 43 -15 12 -39 46 -55 76 -29 59 -35 63 -102 83 -38 11 -48 20 -69 62
-37 72 -40 158 -9 228 23 49 23 56 11 98 -27 87 12 227 67 241 14 4 25 7 26 8
0 1 -8 -26 -19 -60z m2148 -119 c22 -43 19 -118 -7 -170 -26 -50 -89 -95 -150
-106 -33 -5 -39 -3 -47 17 -22 62 -22 63 25 94 52 35 95 85 126 149 12 25 25
46 30 46 4 0 14 -13 23 -30z m-487 -27 c24 -19 41 -40 40 -45 -2 -6 -58 -30
-125 -53 -66 -23 -143 -55 -169 -70 -81 -47 -154 -123 -185 -192 -32 -70 -43
-75 -173 -89 l-69 -7 6 47 c7 50 35 112 76 165 29 39 97 91 118 91 23 0 14
-48 -15 -82 -46 -54 -74 -98 -70 -110 2 -6 15 4 28 23 13 19 38 50 56 70 17
20 35 51 39 67 10 46 76 99 184 149 53 24 112 53 131 63 44 25 72 19 128 -27z
m-984 -79 c15 -43 15 -48 -1 -59 -9 -7 -45 -15 -80 -18 -35 -4 -71 -11 -81
-17 -13 -8 -4 -9 36 -4 l54 6 -24 -41 c-21 -38 -26 -41 -53 -37 -16 3 -60 8
-97 12 -61 6 -68 9 -68 28 0 12 11 38 25 58 19 28 34 38 63 43 20 3 75 21 122
40 47 19 86 34 87 34 0 1 8 -20 17 -45z m1556 -10 c15 -46 7 -109 -21 -170
-21 -43 -29 -50 -113 -90 -50 -24 -103 -46 -118 -50 -28 -6 -28 -6 -28 48 l0
55 58 16 c81 22 138 67 168 130 13 29 24 65 24 80 0 36 15 27 30 -19z m-419
-42 c71 -74 94 -134 87 -233 -5 -58 -11 -78 -41 -123 -66 -99 -199 -181 -367
-226 -93 -24 -132 -43 -198 -92 -36 -27 -54 -33 -108 -36 -80 -5 -137 14 -184
63 -28 29 -41 35 -74 35 -96 0 -191 91 -265 252 -70 151 -73 243 -8 292 44 33
188 98 204 92 7 -3 18 -17 23 -31 14 -37 -4 -73 -44 -90 -66 -28 -80 -78 -50
-173 9 -27 27 -62 39 -78 27 -34 60 -36 215 -16 114 16 153 27 203 60 33 22
44 24 101 19 58 -5 68 -4 98 18 57 42 111 65 158 65 32 0 41 3 33 11 -14 14
-76 13 -123 -1 -47 -14 -50 -13 -50 9 0 29 42 57 116 77 59 16 71 16 107 3 52
-18 87 -67 87 -120 0 -31 -8 -48 -37 -80 -40 -44 -85 -70 -208 -118 -44 -18
-91 -41 -105 -52 l-25 -20 30 7 c52 11 218 75 262 101 88 51 131 128 111 201
-12 43 -83 117 -121 124 -14 3 -65 -5 -113 -17 -106 -27 -144 -60 -144 -125
l0 -40 -85 0 c-47 0 -85 3 -85 8 0 20 45 75 91 112 66 52 122 81 244 125 53
19 103 39 113 44 34 20 57 10 113 -47z m327 -244 c-27 -41 -115 -105 -173
-127 -32 -12 -59 -20 -61 -18 -2 2 5 20 16 41 16 33 29 42 82 61 35 12 79 31
98 43 45 28 56 28 38 0z m-2079 -152 c76 -135 154 -155 456 -121 72 8 138 15
147 15 16 0 45 -37 36 -46 -9 -9 -354 -54 -412 -54 -78 0 -140 18 -198 58 -53
37 -116 124 -124 173 l-6 35 36 -4 c30 -4 39 -11 65 -56z m672 -210 c-13 -15
-271 -126 -294 -126 -9 0 -19 -5 -23 -11 -15 -24 145 23 280 83 80 35 115 43
90 18 -20 -20 -183 -108 -237 -128 -74 -28 -140 -29 -166 -3 -17 17 -56 121
-48 126 1 1 38 7 82 13 151 23 176 11 55 -26 -94 -29 -33 -27 70 2 47 14 79
25 72 25 -29 2 -3 26 34 32 75 12 98 10 85 -5z m-480 -41 c45 -6 46 -6 58 -56
16 -62 52 -105 97 -118 50 -14 174 24 311 94 115 58 181 81 153 52 -28 -28
-252 -146 -291 -152 -58 -10 -63 -30 -6 -22 26 4 95 31 154 61 104 52 192 91
182 82 -10 -10 -191 -126 -221 -142 -63 -33 -115 -35 -180 -9 -10 4 -18 3 -18
-3 0 -6 20 -18 45 -28 79 -30 138 -11 304 96 138 88 157 79 49 -24 -115 -111
-175 -141 -283 -141 -67 0 -89 4 -136 27 -31 16 -74 48 -97 73 -22 25 -48 45
-58 45 -49 0 -112 68 -132 143 -9 33 -9 37 6 33 9 -2 38 -7 63 -11z"/>
<path d="M2530 3943 c8 -2 32 -11 53 -19 20 -7 37 -12 37 -9 0 10 -60 35 -82
34 -14 0 -17 -3 -8 -6z"/>
<path d="M1920 3091 c-6 -12 -31 -44 -55 -71 -48 -54 -82 -110 -66 -110 19 0
121 124 131 159 11 41 6 52 -10 22z"/>
<path d="M3050 3188 c0 -3 16 -29 35 -58 19 -29 42 -76 51 -106 8 -30 18 -54
21 -54 13 0 -10 87 -34 131 -23 43 -73 102 -73 87z"/>
<path d="M2719 2950 c-32 -17 -69 -50 -56 -50 9 0 97 52 102 61 9 14 -6 10
-46 -11z"/>
<path d="M1760 2310 c-23 -7 -22 -8 10 -9 19 0 42 4 50 9 12 8 10 10 -10 9
-14 -1 -36 -5 -50 -9z"/>
<path d="M2045 2490 c23 -114 89 -239 147 -277 44 -30 128 -40 209 -25 49 10
303 97 354 123 54 26 -91 -6 -213 -47 -114 -39 -148 -47 -216 -48 -65 -1 -88
3 -116 19 -46 27 -91 96 -125 192 -31 87 -51 119 -40 63z"/>
<path d="M2630 2129 c-30 -5 -91 -13 -135 -17 -77 -8 -79 -9 -50 -21 25 -11
50 -10 159 8 72 11 134 25 140 31 12 12 -34 12 -114 -1z"/>
<path d="M2580 2057 c-39 -13 -58 -23 -46 -25 20 -4 102 24 111 39 4 5 5 9 3
8 -2 -1 -32 -11 -68 -22z"/>
<path d="M1414 3567 c-59 -62 -135 -196 -133 -234 0 -10 17 16 37 58 40 81 74
132 130 191 20 21 33 40 30 43 -3 3 -32 -23 -64 -58z"/>
<path d="M1092 3408 c-61 -155 -102 -364 -102 -523 0 -160 55 -386 131 -537
72 -143 192 -303 309 -412 111 -102 107 -81 -5 31 -217 216 -341 437 -395 702
-25 123 -27 308 -4 442 13 78 77 293 108 362 5 9 4 17 -1 17 -4 0 -23 -37 -41
-82z"/>
<path d="M4024 3374 c18 -46 46 -170 46 -206 0 -26 4 -37 11 -32 22 13 -24
232 -53 250 -8 5 -9 1 -4 -12z"/>
<path d="M1200 3114 c-49 -113 -80 -350 -50 -369 8 -5 9 9 5 42 -9 63 17 213
51 298 31 76 25 102 -6 29z"/>
<path d="M3420 2269 c-47 -32 -83 -49 -175 -84 -19 -8 -19 -8 -1 -13 36 -8
257 115 235 131 -2 2 -29 -13 -59 -34z"/>
<path d="M3006 1994 c-32 -14 -67 -23 -77 -21 -13 4 -23 -8 -42 -52 -14 -31
-28 -67 -32 -81 -4 -14 -9 -33 -12 -44 -3 -11 -1 -16 5 -12 5 3 13 18 17 33
14 57 57 142 70 137 13 -5 145 50 145 60 0 10 -12 6 -74 -20z"/>
<path d="M765 1509 c-41 -28 -73 -54 -70 -58 2 -4 48 -11 102 -15 54 -3 161
-17 238 -31 506 -87 618 -108 770 -140 93 -19 223 -53 288 -75 117 -39 287
-113 287 -125 0 -3 -19 4 -41 16 -180 91 -526 175 -1004 243 -308 44 -588 70
-537 49 6 -2 9 -9 6 -14 -3 -6 6 -8 23 -4 l28 5 -25 -11 c-21 -10 -5 -14 120
-25 227 -21 522 -54 560 -64 31 -9 29 -9 -15 -5 -111 11 -675 45 -742 45 -39
0 -74 -4 -78 -9 -3 -6 8 -20 25 -32 l30 -22 -28 -17 c-65 -40 -60 -45 56 -63
59 -9 159 -19 222 -22 290 -14 464 -27 575 -41 217 -28 488 -94 654 -158 90
-35 251 -113 251 -121 0 -3 -28 9 -62 26 -185 93 -521 181 -858 223 -229 29
-768 46 -815 26 -16 -7 -12 -9 20 -10 22 -1 34 -4 28 -7 -45 -17 13 -23 240
-23 356 0 638 -27 896 -85 239 -55 436 -120 559 -186 67 -35 58 -33 -62 16
-113 46 -292 98 -467 135 -265 57 -327 62 -830 67 l-466 5 -32 -68 c-18 -38
-41 -91 -52 -117 l-19 -48 21 11 c21 12 66 100 76 152 3 17 11 32 18 34 28 11
934 -16 1045 -31 323 -44 613 -119 857 -223 63 -27 105 -33 120 -19 2 3 -23
25 -56 50 -219 164 -670 350 -986 406 -116 21 -421 51 -637 62 -179 10 -216
15 -207 26 15 17 69 16 339 -2 464 -32 555 -44 745 -99 296 -86 604 -241 835
-419 36 -28 73 -60 83 -71 18 -21 18 -21 12 14 -9 47 -61 125 -142 210 -80 85
-211 193 -224 184 -5 -3 -8 0 -7 8 2 7 -5 13 -14 13 -9 0 -20 4 -25 9 -5 5 -2
6 6 1 10 -6 12 -4 7 4 -5 7 -14 10 -22 7 -8 -3 -13 0 -11 7 1 7 -6 11 -15 11
-10 -1 -16 3 -15 8 1 6 -36 32 -82 59 -234 135 -543 225 -1070 310 -174 28
-324 55 -333 60 -13 6 -36 -4 -93 -42z m419 -69 c239 -35 484 -80 631 -116
110 -27 258 -74 253 -80 -2 -2 -32 6 -66 16 -125 39 -744 152 -1014 185 -32 4
-55 11 -52 16 8 13 14 12 248 -21z m926 -210 c8 -5 11 -10 5 -10 -5 0 -17 5
-25 10 -8 5 -10 10 -5 10 6 0 17 -5 25 -10z m60 -25 c14 -8 21 -14 15 -14 -5
0 -21 6 -35 14 -14 8 -20 14 -15 14 6 0 21 -6 35 -14z m70 -30 c17 -9 30 -18
30 -21 0 -4 -59 23 -69 32 -10 9 13 3 39 -11z m271 -192 c13 -16 12 -17 -3 -4
-17 13 -22 21 -14 21 2 0 10 -8 17 -17z m19 -209 c0 -2 -9 0 -20 6 -11 6 -20
13 -20 16 0 2 9 0 20 -6 11 -6 20 -13 20 -16z m74 -56 c-5 -7 -1 -9 9 -5 17 6
33 -8 19 -17 -12 -7 -35 10 -38 28 -1 9 2 14 7 10 5 -3 6 -10 3 -16z"/>
<path d="M2895 1394 c-31 -37 -64 -78 -73 -93 -9 -14 -20 -28 -24 -31 -4 -3
-3 -64 2 -135 5 -72 12 -206 16 -300 8 -179 9 -178 34 14 7 51 30 162 51 245
34 132 68 351 55 363 -2 2 -29 -26 -61 -63z"/>
<path d="M4055 1396 c-439 -155 -844 -368 -1012 -531 -62 -61 -70 -77 -17 -36
11 9 4 0 -16 -19 -19 -19 -43 -47 -53 -62 -13 -20 12 -6 94 53 150 109 312
205 467 278 72 34 133 61 136 61 12 0 402 153 445 174 25 13 56 32 68 42 23
19 60 94 46 93 -5 0 -75 -24 -158 -53z m-865 -440 c0 -2 -17 -16 -37 -31 l-38
-26 35 30 c34 31 40 35 40 27z m-80 -59 c0 -2 -12 -14 -27 -28 l-28 -24 24 28
c23 25 31 32 31 24z"/>
<path d="M703 1383 c15 -2 39 -2 55 0 15 2 2 4 -28 4 -30 0 -43 -2 -27 -4z"/>
<path d="M4570 1285 c0 -5 231 -547 258 -604 15 -33 15 -35 -7 -52 -22 -18
-58 -19 -801 -19 -694 0 -780 -2 -794 -16 -9 -8 -16 -19 -16 -24 0 -14 -60
-80 -72 -80 -6 0 1 9 15 20 14 11 34 38 43 60 10 21 25 43 33 47 9 4 365 8
791 9 427 0 783 3 793 7 9 3 17 14 17 24 0 12 -3 14 -8 6 -6 -9 -197 -13 -806
-15 l-798 -3 -25 -30 c-73 -89 -72 -88 -133 -81 -54 6 -57 5 -83 -24 l-27 -30
-156 0 -155 0 -25 27 c-22 23 -31 26 -78 24 -52 -2 -54 -2 -94 47 -28 33 -53
52 -74 57 -18 4 -472 10 -1008 14 l-975 6 -3 25 c-3 16 25 82 79 188 69 136
86 162 102 158 11 -3 37 8 64 27 l45 32 -63 3 c-42 2 -66 -1 -74 -10 -7 -7
-55 -89 -106 -183 -125 -228 -129 -236 -129 -258 0 -25 44 -67 72 -68 21 0 21
-1 4 -8 -39 -15 44 -33 199 -42 83 -5 530 -13 995 -17 717 -6 849 -9 870 -22
35 -20 686 -16 736 5 22 9 85 14 201 14 282 3 866 20 901 27 37 8 42 21 10 27
-13 2 96 5 242 6 292 2 326 8 349 55 16 34 14 39 -114 321 -123 270 -167 355
-182 355 -7 0 -13 -2 -13 -5z m-4182 -642 c12 -10 218 -13 946 -14 512 -1 960
-4 995 -8 l64 -6 38 -63 c46 -76 32 -72 -17 4 l-35 54 -167 1 c-92 0 -539 1
-993 2 -884 2 -860 1 -858 51 0 14 2 16 6 6 3 -8 12 -21 21 -27z m2125 -160
c-7 -2 -19 -2 -25 0 -7 3 -2 5 12 5 14 0 19 -2 13 -5z m590 0 c-13 -2 -35 -2
-50 0 -16 2 -5 4 22 4 28 0 40 -2 28 -4z"/>
<path d="M4196 1244 c-320 -51 -675 -167 -878 -285 -37 -22 -68 -42 -68 -44 0
-7 77 18 122 41 139 70 449 154 793 214 130 23 180 42 203 78 18 28 24 28
-172 -4z"/>
<path d="M4205 1139 c-188 -18 -446 -70 -620 -125 -114 -35 -285 -106 -285
-117 0 -5 8 -6 18 -2 9 5 87 32 172 61 237 81 538 142 780 160 52 4 111 13
130 20 34 12 33 13 -35 12 -38 0 -110 -5 -160 -9z"/>
<path d="M4146 1085 c-429 -52 -918 -203 -1056 -326 -33 -29 -30 -28 50 14
300 158 615 243 1007 270 182 13 223 22 223 48 0 12 -93 9 -224 -6z"/>
<path d="M4136 1009 c-82 -5 -151 -11 -154 -14 -3 -3 126 -5 286 -5 282 0 374
10 215 24 -87 7 -139 6 -347 -5z"/>
<path d="M3261 891 c-9 -6 -10 -11 -2 -15 6 -4 11 -2 11 4 0 6 5 8 10 5 6 -3
10 -1 10 4 0 13 -10 14 -29 2z"/>
<path d="M1322 793 c82 -2 214 -2 295 0 82 1 15 3 -147 3 -162 0 -229 -2 -148
-3z"/>
<path d="M678 783 c28 -2 76 -2 105 0 28 2 5 3 -53 3 -58 0 -81 -1 -52 -3z"/>
<path d="M1853 783 c20 -2 54 -2 75 0 20 2 3 4 -38 4 -41 0 -58 -2 -37 -4z"/>
<path d="M1998 773 c12 -2 32 -2 45 0 12 2 2 4 -23 4 -25 0 -35 -2 -22 -4z"/>
<path d="M3468 773 c7 -3 16 -2 19 1 4 3 -2 6 -13 5 -11 0 -14 -3 -6 -6z"/>
<path d="M2113 763 c9 -2 25 -2 35 0 9 3 1 5 -18 5 -19 0 -27 -2 -17 -5z"/>
<path d="M2193 753 c9 -2 25 -2 35 0 9 3 1 5 -18 5 -19 0 -27 -2 -17 -5z"/>
<path d="M2268 743 c6 -2 18 -2 25 0 6 3 1 5 -13 5 -14 0 -19 -2 -12 -5z"/>
<path d="M2715 596 c-59 -19 -105 -45 -105 -60 0 -7 8 -20 18 -29 16 -14 43
-17 163 -17 l145 0 28 29 27 28 -26 17 c-68 45 -169 58 -250 32z"/>
</g>
</svg>